# xmcd
#
# Track frame offsets: 
#        150
#        13194
#        26386
#        38580
#        52542
#        64848
#        78577
#        91339
#        104636
#        117842
#        132856
#        145033
#        158464
#        171696
#        181830
#        194590
#        207465
#        218959
#        233165
#        245521
#
# Disc length: 3464 seconds
#
# Revision: 0
# Processed by: cddbd v1.5.2PL0 Copyright (c) Steve Scherf et al.
# Submitted via: ExactAudioCopyFreeDBPlugin 1.0
#
DISCID=130d8614
DTITLE=Muddy Waters - The Album - The Essential Blues Collection
DYEAR=2018
DGENRE=Blues
TTITLE0=I'm Your Hoochie Coochie Man
TTITLE1=Just Make Love To Me
TTITLE2=Long Distance Call
TTITLE3=I'm Ready
TTITLE4=Trouble No More
TTITLE5=Rollin' And Tumblin'
TTITLE6=Got My Mojo Working
TTITLE7=Manish Boy
TTITLE8=Louisiana Blues
TTITLE9=Still A Fool
TTITLE10=You Shook Me
TTITLE11=Walkin' Blues
TTITLE12=Lonesome Room Blues
TTITLE13=Messin' With The Man
TTITLE14=Woman Wanted
TTITLE15=I Got To Find My Baby
TTITLE16=Sugar Sweet
TTITLE17=Rollin' Stone
TTITLE18=I Can't Be Satisfied
TTITLE19=I Feel Like Going Home
EXTD=
EXTT0=
EXTT1=
EXTT2=
EXTT3=
EXTT4=
EXTT5=
EXTT6=
EXTT7=
EXTT8=
EXTT9=
EXTT10=
EXTT11=
EXTT12=
EXTT13=
EXTT14=
EXTT15=
EXTT16=
EXTT17=
EXTT18=
EXTT19=
PLAYORDER=
